<svg xmlns="http://www.w3.org/2000/svg" viewBox="0 0 24 24" fill="currentColor">
  <path d="M17.6 10.1c-.2 0-.4 0-.5.1C16.6 7.1 14.3 5 11.5 5c-.3 0-.6 0-.8.1-.4.1-.7.4-.7.8v10.2c0 .4.3.8.8.8h6.8c2.1 0 3.8-1.7 3.8-3.8 0-2-1.6-3.8-3.8-3.8zM2.9 13.6v1.9c0 .3.2.5.5.5s.5-.2.5-.5v-1.9c0-.3-.2-.5-.5-.5s-.5.2-.5.5zm1.8-1v2.9c0 .3.2.5.5.5s.5-.2.5-.5v-2.9c0-.3-.2-.5-.5-.5s-.5.2-.5.5zm1.8-.8v3.7c0 .3.2.5.5.5s.5-.2.5-.5v-3.7c0-.3-.2-.5-.5-.5s-.5.2-.5.5zm1.8-.7v4.4c0 .3.2.5.5.5s.5-.2.5-.5v-4.4c0-.3-.2-.5-.5-.5s-.5.2-.5.5zm1.8-.6v5c0 .3.2.5.5.5s.5-.2.5-.5v-5c0-.3-.2-.5-.5-.5s-.5.2-.5.5z"/>
</svg>
